P2
90 100
9011
0 0 0 0 0 0 0 0 0 0 0 0 0 0 0 0 0 0 0 0 0 0 0 0 0 0 0 0 0 0 0 0 0 0 0 0 0 0 0 0 0 0 0 0 0 0 0 0 0 0 0 0 0 0 0 0 0 0 0 0 0 0 0 0 0 0 0 0 0 0 0 0 0 0 0 0 0 0 0 0 0 0 0 0 0 0 0 0 0 0 
0 0 0 0 0 0 0 0 0 0 0 0 114 187 236 272 290 301 297 283 261 227 189 133 0 0 0 0 0 0 0 0 0 0 0 0 0 0 0 0 0 0 0 0 0 0 0 0 0 0 0 0 0 0 0 0 0 0 0 0 0 0 0 0 0 0 0 119 175 215 251 273 288 291 279 260 225 176 104 0 0 0 0 0 0 0 0 0 0 0 
0 0 0 0 0 0 0 0 0 0 181 288 366 421 465 487 504 501 495 478 451 418 371 321 256 185 0 0 0 0 0 0 0 0 0 0 0 0 0 0 0 0 0 0 0 0 0 0 0 0 0 0 0 0 0 0 0 0 0 0 0 0 0 0 0 170 247 316 370 418 451 478 495 501 504 486 461 414 356 278 171 0 0 0 0 0 0 0 0 0 
0 0 0 0 0 0 0 0 195 356 472 560 621 662 689 703 699 695 684 666 643 605 566 510 450 376 293 197 0 0 0 0 0 0 0 0 0 0 0 0 0 0 0 0 0 0 0 0 0 0 0 0 0 0 0 0 0 0 0 0 0 0 0 183 287 376 450 510 566 606 644 672 693 705 706 706 689 662 620 555 462 346 185 0 0 0 0 0 0 0 
0 0 0 0 0 0 132 370 555 677 769 825 840 831 813 802 796 781 765 749 729 717 702 682 634 567 487 393 288 165 0 0 0 0 0 0 0 0 0 0 0 0 0 0 0 0 0 0 0 0 0 0 0 0 0 0 0 0 0 0 0 148 282 393 487 567 634 697 747 796 832 866 890 910 925 923 917 902 873 830 769 672 544 360 125 0 0 0 0 0 
0 0 0 0 0 290 583 777 903 975 964 949 957 975 986 986 974 968 945 916 887 849 804 757 731 716 676 592 489 373 239 0 0 0 0 0 0 0 0 0 0 0 0 0 0 0 0 0 0 0 0 0 0 0 0 0 0 0 0 0 229 373 489 592 680 757 829 887 942 984 1026 1056 1087 1112 1122 1139 1145 1140 1126 1100 1055 997 903 770 573 280 0 0 0 0 
0 0 0 0 507 840 1045 1158 1136 1124 1163 1192 1207 1215 1213 1205 1197 1167 1144 1115 1078 1035 987 939 876 810 758 740 690 586 455 307 132 0 0 0 0 0 0 0 0 0 0 0 0 0 0 0 0 0 0 0 0 0 0 0 0 0 111 303 455 586 692 789 872 950 1012 1074 1124 1175 1216 1254 1286 1313 1346 1358 1370 1381 1380 1371 1357 1317 1263 1179 1041 830 497 0 0 0 
0 0 174 817 1188 1389 1385 1346 1392 1425 1448 1459 1461 1449 1439 1421 1391 1373 1341 1306 1267 1227 1181 1124 1068 1002 928 846 787 760 672 533 371 179 0 0 0 0 0 0 0 0 0 0 0 0 0 0 0 0 0 0 0 0 0 0 0 162 371 533 672 789 899 988 1069 1140 1208 1263 1318 1362 1406 1448 1484 1518 1539 1574 1598 1616 1633 1642 1641 1637 1618 1579 1507 1390 1178 807 169 0 
0 425 1363 1717 1820 1682 1687 1724 1740 1752 1745 1732 1711 1697 1667 1639 1617 1577 1540 1501 1460 1414 1363 1314 1254 1191 1121 1041 954 861 813 760 608 428 216 0 0 0 0 0 0 0 0 0 0 0 0 0 0 0 0 0 0 0 0 0 201 428 608 762 891 1007 1098 1184 1262 1330 1390 1450 1501 1554 1599 1641 1682 1721 1766 1792 1826 1859 1884 1914 1940 1958 1967 1978 1970 1939 1872 1710 1353 420 
3402 2871 2714 2447 2169 2162 2150 2129 2105 2070 2036 2002 1971 1928 1894 1857 1808 1775 1736 1695 1651 1605 1558 1502 1448 1384 1316 1242 1157 1057 954 863 836 686 487 246 0 0 0 0 0 0 0 0 0 0 0 0 0 0 0 0 0 0 0 233 487 686 852 987 1106 1205 1303 1384 1456 1523 1587 1641 1694 1740 1789 1835 1879 1921 1956 2010 2051 2093 2142 2184 2228 2277 2331 2379 2433 2491 2554 2628 2708 2861 
5103 5196 3650 3017 2838 2711 2612 2529 2455 2388 2330 2272 2219 2170 2120 2072 2037 1980 1936 1890 1840 1793 1739 1690 1633 1574 1510 1438 1361 1279 1171 1056 932 896 757 540 266 0 0 0 0 0 0 0 0 0 0 0 0 0 0 0 0 0 254 540 757 935 1085 1214 1325 1428 1506 1581 1650 1712 1769 1826 1878 1933 1980 2031 2078 2126 2187 2225 2275 2309 2334 2364 2403 2455 2522 2607 2724 2882 3113 3470 4063 5190 
5151 4461 4547 3920 3521 3263 3074 2929 2808 2713 2621 2544 2473 2408 2349 2292 2224 2187 2133 2083 2034 1983 1934 1879 1826 1766 1705 1637 1564 1473 1389 1285 1166 1021 965 829 587 275 0 0 0 0 0 0 0 0 0 0 0 0 0 0 0 262 587 829 1030 1192 1329 1442 1542 1621 1708 1779 1845 1905 1965 2018 2069 2119 2172 2223 2276 2329 2341 2360 2377 2413 2473 2543 2623 2711 2807 2929 3074 3263 3521 3935 4688 4774 
3534 4092 4772 4792 4206 3814 3538 3329 3171 3026 2915 2817 2727 2647 2575 2507 2459 2382 2330 2276 2223 2171 2115 2065 2011 1956 1898 1834 1764 1700 1606 1509 1396 1272 1115 1038 909 632 270 0 0 0 0 0 0 0 0 0 0 0 0 0 254 632 909 1126 1298 1444 1563 1669 1758 1849 1910 1977 2039 2095 2147 2201 2255 2311 2362 2413 2423 2417 2461 2508 2572 2649 2727 2817 2914 3027 3170 3328 3538 3814 4206 4797 4999 5106 
5013 5212 4777 5018 4882 4361 4001 3728 3516 3351 3210 3084 2978 2891 2800 2726 2640 2591 2528 2469 2415 2361 2311 2258 2205 2148 2091 2033 1968 1889 1824 1737 1639 1523 1389 1223 1121 985 670 242 0 0 0 0 0 0 0 0 0 0 0 221 670 985 1224 1415 1570 1696 1804 1895 1978 2037 2114 2176 2232 2287 2344 2395 2446 2496 2511 2493 2529 2589 2640 2726 2801 2886 2978 3084 3210 3353 3518 3729 4001 4361 4997 5384 5413 5400 
5570 5402 5321 5015 5156 4916 4463 4129 3876 3672 3495 3356 3235 3120 3029 2942 2879 2795 2726 2662 2606 2549 2492 2440 2389 2340 2284 2228 2172 2121 2040 1967 1877 1778 1661 1516 1341 1228 1070 705 188 0 0 0 0 0 0 0 0 0 167 705 1070 1342 1549 1710 1841 1950 2042 2124 2193 2271 2317 2371 2424 2478 2525 2578 2611 2590 2607 2663 2725 2796 2880 2942 3030 3123 3236 3357 3496 3667 3875 4129 4506 5106 5454 5430 5418 5408 
5570 5414 5413 5358 5158 5250 4925 4531 4234 3987 3799 3630 3484 3364 3257 3160 3057 2995 2924 2859 2797 2740 2687 2636 2582 2528 2477 2430 2372 2305 2258 2189 2114 2032 1931 1809 1658 1473 1354 1167 733 117 0 0 0 0 0 0 0 0 733 1167 1470 1698 1867 2002 2113 2203 2279 2349 2411 2453 2518 2570 2617 2668 2720 2713 2693 2738 2795 2858 2925 2994 3056 3160 3254 3364 3483 3629 3799 3991 4235 4619 5107 5480 5456 5433 5417 5408 
5013 5405 5420 5434 5370 5256 5304 4938 4583 4314 4082 3899 3741 3601 3482 3377 3300 3199 3122 3052 2987 2926 2868 2814 2768 2722 2674 2625 2577 2542 2475 2418 2359 2282 2199 2103 1980 1821 1620 1523 1277 744 0 0 0 0 0 0 0 744 1277 1631 1870 2049 2187 2296 2382 2456 2521 2577 2628 2691 2723 2768 2814 2850 2805 2814 2868 2929 2990 3053 3121 3198 3300 3376 3483 3601 3741 3898 4080 4332 4697 5088 5489 5486 5457 5433 5414 5405 
5570 5401 5418 5430 5457 5392 5340 5319 4943 4627 4380 4167 3992 3840 3710 3594 3473 3402 3320 3248 3179 3119 3063 3014 2960 2911 2867 2824 2783 2722 2693 2648 2595 2539 2471 2393 2300 2181 2022 1809 1750 1426 731 0 0 0 0 0 731 1427 1835 2092 2272 2407 2510 2587 2653 2711 2760 2804 2845 2870 2927 2966 2980 2925 2961 3015 3063 3117 3177 3248 3321 3403 3473 3595 3711 3843 3992 4167 4421 4735 5069 5469 5523 5487 5457 5432 5418 5403 
5570 5407 5410 5430 5459 5484 5416 5413 5296 4951 4670 4442 4245 4084 3938 3812 3722 3605 3518 3441 3372 3304 3246 3190 3147 3103 3062 3020 2982 2962 2909 2870 2835 2790 2745 2688 2619 2538 2429 2272 2048 2060 1635 656 0 0 0 635 1635 2109 2376 2555 2679 2763 2825 2881 2926 2962 2998 3030 3063 3112 3128 3114 3064 3104 3147 3191 3246 3306 3371 3440 3517 3605 3722 3812 3936 4081 4246 4491 4759 5059 5421 5568 5525 5484 5455 5432 5416 5410 
5570 5412 5419 5437 5455 5490 5523 5449 5493 5275 4965 4711 4501 4316 4163 4029 3891 3806 3715 3636 3559 3499 3440 3390 3337 3295 3256 3221 3188 3139 3128 3101 3071 3043 3012 2980 2942 2887 2829 2736 2606 2405 2528 2011 528 0 507 2011 2542 2791 2936 3018 3079 3115 3149 3174 3194 3215 3236 3257 3279 3286 3263 3221 3256 3294 3338 3391 3440 3498 3560 3636 3716 3805 3891 4029 4164 4318 4553 4789 5056 5375 5619 5567 5522 5489 5456 5434 5416 5407 
5013 5401 5417 5433 5456 5482 5525 5568 5499 5538 5255 4981 4752 4560 4391 4246 4140 4009 3915 3829 3753 3681 3622 3568 3526 3484 3451 3416 3390 3383 3343 3327 3307 3299 3284 3272 3257 3248 3228 3198 3152 3078 3001 3361 3035 1553 3035 3361 3446 3475 3479 3481 3477 3454 3416 3386 3366 3359 3356 3367 3382 3342 3297 3341 3398 3454 3516 3566 3623 3682 3753 3829 3914 4011 4141 4246 4393 4607 4817 5056 5346 5648 5621 5568 5524 5482 5457 5431 5412 5401 
5570 5401 5417 5431 5454 5490 5524 5568 5612 5580 5549 5252 5005 4795 4619 4464 4311 4215 4110 4018 3944 3879 3816 3766 3714 3677 3643 3616 3592 3555 3562 3551 3552 3546 3557 3565 3583 3599 3625 3661 3703 3759 3842 4224 5730 7870 5730 4715 4354 4152 3970 3804 3685 3614 3585 3565 3556 3546 3549 3551 3466 3407 3449 3474 3504 3543 3592 3668 3758 3856 3942 4020 4111 4215 4311 4465 4663 4852 5072 5330 5637 5684 5620 5568 5525 5492 5456 5433 5420 5409 
5570 5417 5410 5430 5458 5483 5522 5567 5619 5642 5660 5525 5258 5033 4843 4680 4558 4415 4309 4215 4133 4058 4002 3945 3906 3867 3836 3812 3796 3804 3780 3782 3785 3807 3824 3859 3900 3954 4028 4121 4257 4441 4737 5318 7009 7870 7587 6004 5026 4515 4261 4121 4028 3955 3900 3859 3825 3806 3787 3677 3627 3653 3648 3671 3694 3728 3769 3805 3862 3928 4030 4165 4300 4415 4559 4720 4893 5093 5322 5603 5752 5678 5619 5567 5522 5483 5456 5434 5415 5408 
5013 5402 5421 5435 5454 5488 5524 5567 5621 5681 5690 5733 5511 5276 5072 4899 4733 4618 4507 4409 4327 4259 4194 4143 4091 4058 4030 4012 3996 3971 3995 4009 4029 4056 4097 4150 4220 4315 4429 4589 4799 5126 5653 6585 6200 5550 6823 6649 5652 5126 4798 4589 4429 4314 4220 4150 4097 4057 3922 3851 3843 3823 3851 3869 3891 3918 3954 4008 4058 4119 4191 4268 4383 4550 4756 4942 5120 5332 5579 5810 5747 5683 5621 5568 5524 5489 5454 5431 5415 5403 
5570 5401 5417 5432 5456 5485 5523 5568 5623 5684 5750 5751 5762 5510 5299 5114 4973 4827 4705 4603 4516 4436 4379 4322 4286 4250 4221 4207 4202 4225 4215 4231 4266 4310 4371 4444 4543 4662 4829 5047 5357 5808 6556 6950 6954 6768 6194 6906 6557 5808 5358 5047 4829 4661 4542 4444 4370 4208 4102 4074 4061 4077 4059 4064 4081 4112 4147 4182 4239 4300 4375 4462 4562 4710 4873 5085 5340 5569 5828 5827 5750 5680 5622 5567 5522 5484 5455 5430 5416 5404 
5570 5411 5414 5434 5455 5486 5523 5568 5618 5678 5751 5829 5850 5756 5524 5334 5155 5023 4902 4797 4707 4638 4569 4519 4469 4440 4418 4407 4402 4387 4429 4462 4505 4563 4639 4737 4858 5023 5229 5509 5901 6488 7309 7526 7545 7770 7205 6909 7146 6488 5901 5510 5229 5024 4858 4737 4546 4391 4341 4302 4276 4239 4256 4265 4277 4302 4332 4384 4435 4498 4570 4657 4783 4905 5042 5222 5439 5759 5916 5830 5751 5680 5618 5568 5525 5484 5456 5437 5418 5410 
5013 5408 5414 5432 5456 5487 5523 5567 5621 5684 5748 5826 5888 5936 5753 5549 5387 5228 5101 4995 4900 4815 4754 4698 4666 4633 4613 4603 4607 4646 4648 4690 4747 4814 4908 5029 5182 5378 5628 5975 6503 7369 7576 7555 7549 6993 7548 7155 7162 7141 6457 5974 5629 5377 5183 4950 4726 4641 4582 4532 4495 4496 4461 4460 4473 4491 4527 4558 4614 4679 4761 4870 4980 5112 5271 5437 5642 5828 5793 5804 5748 5683 5622 5567 5522 5488 5457 5433 5416 5406 
5570 5402 5420 5430 5456 5483 5524 5569 5622 5677 5750 5826 5913 5968 5979 5767 5577 5433 5298 5187 5088 5017 4945 4895 4847 4821 4809 4803 4812 4805 4866 4913 4978 5071 5179 5321 5501 5727 6029 6534 7228 7613 7583 7556 7533 7770 7534 7556 7186 7313 7003 6437 6028 5727 5443 5127 4996 4897 4815 4756 4713 4657 4666 4661 4668 4685 4709 4760 4811 4877 4958 5064 5179 5317 5464 5655 5869 5846 5739 5655 5676 5678 5622 5569 5523 5482 5456 5428 5413 5402 
5570 5403 5416 5435 5457 5492 5524 5567 5619 5682 5751 5828 5915 6011 6068 5986 5804 5634 5497 5381 5282 5193 5132 5076 5045 5014 5001 4999 5013 5066 5082 5143 5224 5322 5455 5613 5820 6105 6561 7083 7618 7616 7578 7554 7539 7770 7538 7554 7552 7315 7405 6898 6435 6056 5611 5420 5274 5150 5058 4983 4929 4916 4869 4856 4861 4875 4906 4937 4993 5062 5156 5258 5376 5516 5689 5875 5959 5846 5744 5647 5557 5541 5605 5568 5525 5492 5455 5433 5418 5410 
5570 5416 5411 5434 5457 5482 5522 5568 5621 5683 5748 5828 5910 6003 6093 6152 5976 5813 5675 5556 5462 5388 5320 5272 5225 5206 5196 5199 5215 5225 5301 5370 5454 5576 5721 5909 6183 6565 6988 7518 7652 7610 7574 7555 7549 7770 7548 7554 7575 7480 7421 7355 6826 6221 5937 5715 5540 5406 5293 5212 5148 5077 5069 5057 5056 5066 5086 5136 5186 5262 5344 5449 5575 5718 5884 6058 5960 5849 5741 5646 5555 5471 5418 5512 5522 5482 5458 5437 5416 5408 
5013 5401 5418 5428 5455 5489 5525 5553 5574 5596 5640 5696 5774 5866 5974 6066 6078 5900 5757 5637 5539 5457 5403 5367 5362 5358 5372 5392 5422 5483 5516 5593 5702 5830 5993 6253 6566 6922 7387 7705 7654 7609 7580 7557 7540 6993 7542 7558 7579 7609 7452 7523 7016 6569 6250 6005 5812 5657 5534 5436 5363 5335 5276 5252 5248 5258 5284 5315 5367 5443 5537 5642 5772 5924 6104 6087 5962 5846 5742 5642 5555 5471 5392 5320 5401 5491 5456 5430 5416 5402 
5570 5401 5418 5425 5381 5332 5317 5336 5396 5478 5559 5646 5741 5847 5961 6086 6183 6101 5947 5819 5714 5633 5562 5512 5468 5450 5452 5483 5542 5606 5724 5824 5935 6084 6329 6587 6887 7279 7707 7706 7651 7609 7581 7551 7533 7770 7533 7552 7582 7610 7651 7317 7322 6930 6574 6302 6082 5909 5768 5666 5581 5497 5477 5452 5441 5448 5470 5511 5577 5654 5744 5855 5987 6141 6231 6093 5964 5848 5742 5648 5558 5478 5395 5317 5240 5273 5452 5432 5413 5408 
5361 5146 5018 5001 5063 5157 5240 5319 5394 5466 5553 5647 5741 5844 5959 6086 6219 6290 6147 6014 5907 5814 5746 5690 5660 5640 5634 5647 5679 5751 5816 5954 6137 6392 6611 6872 7209 7612 7767 7704 7653 7613 7577 7558 7546 7770 7547 7557 7577 7612 7493 7358 7367 7275 6895 6590 6352 6165 6015 5894 5800 5759 5699 5673 5659 5663 5677 5711 5761 5833 5926 6039 6177 6328 6237 6103 5980 5871 5765 5673 5578 5480 5396 5319 5241 5157 5132 5403 5420 5407 
4127 4573 4733 4916 5059 5156 5242 5319 5395 5475 5556 5642 5742 5844 5963 6086 6219 6350 6343 6207 6097 6010 5938 5889 5848 5828 5827 5848 5880 5919 6015 6133 6312 6503 6786 7144 7526 7837 7768 7705 7656 7611 7577 7553 7548 6993 7547 7553 7576 7518 7326 7422 7392 7489 7211 6888 6625 6421 6276 6142 6040 5935 5885 5848 5828 5820 5839 5881 5943 6015 6109 6223 6366 6370 6219 6086 5962 5845 5743 5641 5558 5489 5417 5343 5266 5172 5059 4962 5313 5405 
5470 5303 5303 5196 5132 5158 5241 5319 5393 5477 5559 5645 5743 5849 5961 6085 6227 6376 6500 6405 6288 6195 6125 6067 6038 6022 6023 6043 6088 6166 6252 6392 6544 6736 6976 7271 7676 7785 7767 7705 7652 7610 7578 7559 7533 7770 7533 7560 7552 7213 7325 7420 7518 7488 7535 7199 6922 6685 6492 6345 6234 6166 6089 6043 6012 6009 6032 6069 6126 6204 6302 6421 6522 6376 6226 6085 5962 5846 5743 5645 5557 5472 5395 5315 5241 5166 5084 4942 4703 5068 
5470 5315 5316 5337 5357 5347 5306 5320 5397 5468 5553 5650 5742 5846 5960 6086 6218 6371 6532 6598 6481 6387 6310 6263 6227 6213 6220 6243 6285 6359 6490 6623 6788 6991 7242 7554 7717 7615 7578 7626 7652 7608 7579 7551 7542 7770 7541 7551 7115 7211 7323 7426 7539 7593 7625 7473 7165 6926 6728 6575 6450 6340 6284 6235 6203 6200 6219 6257 6314 6392 6490 6617 6537 6369 6219 6085 5960 5845 5741 5648 5555 5470 5393 5319 5240 5162 5056 4922 4681 4009 
4923 5312 5319 5336 5360 5384 5421 5450 5441 5479 5555 5642 5740 5849 5962 6086 6226 6372 6535 6704 6670 6574 6503 6443 6415 6404 6413 6439 6510 6615 6711 6848 7023 7242 7511 7789 7715 7616 7517 7421 7396 7505 7581 7558 7548 6993 7548 7062 7067 7221 7348 7444 7520 7616 7625 7711 7434 7177 6964 6800 6667 6582 6491 6417 6394 6393 6409 6448 6505 6583 6685 6718 6535 6374 6225 6086 5962 5849 5741 5643 5555 5478 5393 5318 5238 5153 5064 4941 4699 4498 
5470 5301 5319 5335 5356 5393 5428 5469 5520 5561 5593 5643 5743 5846 5960 6085 6217 6371 6537 6717 6855 6764 6687 6641 6606 6595 6605 6655 6723 6798 6925 7073 7262 7495 7769 7829 7720 7613 7513 7422 7326 7216 7204 7418 7537 7770 7026 6823 7091 7233 7326 7424 7514 7613 7717 7737 7708 7428 7207 7025 6886 6763 6666 6617 6589 6582 6599 6633 6690 6769 6866 6717 6537 6373 6219 6085 5959 5846 5742 5645 5557 5467 5396 5319 5253 5187 5079 4925 4942 5301 
5470 5309 5320 5334 5358 5384 5423 5469 5521 5582 5644 5714 5761 5850 5960 6086 6226 6374 6535 6716 6909 6953 6880 6821 6791 6787 6814 6858 6927 7030 7144 7303 7500 7748 7943 7823 7715 7612 7517 7425 7321 7215 7062 6816 6659 6171 6120 6826 7060 7214 7322 7423 7517 7612 7717 7787 7870 7682 7442 7255 7103 6970 6871 6812 6784 6773 6785 6827 6882 6962 6913 6714 6535 6370 6225 6087 5961 5849 5743 5648 5556 5477 5407 5344 5255 5154 5058 5100 5320 5309 
5470 5319 5318 5336 5359 5389 5422 5469 5519 5579 5646 5720 5805 5884 5968 6085 6219 6369 6535 6714 6914 7107 7062 7016 6987 6986 7010 7057 7128 7218 7360 7528 7733 7974 7948 7829 7717 7616 7518 7420 7328 7216 7066 6822 6133 6624 6700 6812 7066 7214 7328 7420 7518 7617 7716 7827 7875 7927 7680 7480 7303 7150 7070 7012 6977 6967 6980 7007 7066 7112 6915 6715 6535 6372 6218 6084 5962 5847 5739 5642 5571 5498 5406 5319 5238 5159 5192 5336 5318 5319 
4923 5303 5315 5333 5358 5387 5426 5468 5520 5576 5648 5722 5809 5901 6009 6108 6226 6370 6535 6714 6914 7136 7257 7198 7172 7180 7203 7254 7333 7448 7578 7754 7974 8080 7946 7828 7718 7614 7517 7424 7323 7220 7096 6824 7035 6903 7448 7344 7160 7213 7324 7424 7517 7614 7718 7829 7943 8014 7925 7703 7495 7379 7276 7209 7167 7156 7162 7202 7259 7136 6914 6715 6535 6372 6226 6086 5960 5845 5756 5671 5567 5469 5393 5318 5243 5259 5359 5333 5316 5303 
5470 5303 5323 5337 5359 5387 5425 5469 5518 5583 5644 5724 5811 5904 6008 6127 6252 6382 6537 6715 6916 7128 7364 7396 7376 7372 7397 7452 7533 7638 7795 7984 8177 8076 7947 7824 7713 7614 7518 7425 7350 7229 7060 7036 7435 7670 7435 7462 7479 7388 7329 7422 7517 7614 7715 7824 7947 8042 8133 7885 7712 7570 7479 7406 7363 7346 7359 7382 7366 7127 6915 6715 6536 6370 6220 6085 5970 5870 5756 5648 5554 5478 5394 5319 5319 5388 5359 5337 5322 5303 
5470 5318 5316 5336 5358 5389 5424 5469 5521 5573 5647 5724 5806 5904 6011 6126 6257 6400 6551 6718 6912 7137 7380 7577 7552 7561 7591 7650 7737 7863 8013 8194 8224 8079 7945 7831 7720 7614 7541 7442 7326 7212 7085 7453 7448 7670 7447 7456 7477 7514 7538 7476 7518 7615 7717 7831 7946 8077 8123 8113 7932 7794 7680 7604 7557 7538 7539 7578 7383 7137 6913 6714 6535 6371 6227 6111 5978 5846 5740 5646 5558 5467 5396 5377 5424 5388 5358 5335 5316 5318 
4923 5309 5320 5332 5358 5386 5423 5469 5519 5582 5647 5719 5809 5905 6008 6128 6256 6398 6558 6732 6921 7123 7366 7649 7754 7753 7788 7848 7938 8062 8229 8364 8221 8081 7948 7824 7731 7636 7519 7423 7322 7215 7460 7464 7454 6903 7450 7459 7485 7511 7552 7605 7614 7615 7718 7824 7948 8055 8155 8276 8147 7993 7882 7804 7753 7729 7737 7639 7365 7129 6916 6717 6537 6396 6242 6086 5959 5847 5743 5642 5555 5476 5438 5469 5424 5386 5358 5333 5320 5309 
5470 5301 5317 5335 5355 5390 5427 5469 5518 5579 5646 5724 5806 5902 6009 6127 6258 6403 6559 6735 6917 7133 7380 7642 7914 7944 7979 8045 8143 8279 8427 8378 8217 8070 7953 7854 7726 7619 7518 7422 7325 7397 7477 7456 7434 7670 7440 7455 7480 7513 7555 7608 7668 7735 7747 7829 7943 8006 8165 8293 8367 8210 8090 8000 7944 7918 7902 7643 7384 7136 6913 6737 6560 6374 6224 6086 5961 5848 5740 5646 5557 5506 5519 5469 5426 5390 5355 5336 5317 5301 
5470 5313 5324 5337 5360 5384 5424 5468 5521 5576 5645 5725 5807 5900 6009 6125 6256 6399 6558 6723 6912 7131 7364 7644 7948 8136 8177 8244 8344 8474 8551 8378 8227 8107 7966 7825 7717 7612 7516 7423 7379 7510 7477 7458 7444 7670 7438 7465 7479 7511 7554 7606 7665 7738 7822 7881 7873 8016 8170 8331 8468 8413 8286 8199 8142 8114 7939 7638 7361 7139 6938 6725 6536 6371 6221 6084 5961 5844 5740 5649 5578 5577 5520 5468 5424 5384 5360 5336 5324 5313 
4923 5316 5316 5333 5357 5392 5424 5469 5522 5583 5648 5719 5811 5906 6011 6128 6256 6402 6543 6717 6916 7133 7381 7639 7935 8269 8369 8441 8551 8673 8549 8389 8239 8076 7945 7830 7715 7613 7516 7421 7556 7515 7484 7455 7452 6903 7453 7452 7481 7515 7557 7602 7667 7739 7823 7861 7940 8024 8158 8328 8494 8619 8491 8396 8334 8255 7934 7644 7409 7152 6916 6716 6536 6372 6222 6087 5962 5849 5745 5657 5648 5583 5522 5469 5424 5392 5357 5333 5316 5316 
5470 5301 5319 5336 5358 5384 5425 5469 5516 5574 5645 5722 5806 5902 6008 6124 6257 6379 6536 6714 6915 7133 7368 7643 7938 8268 8552 8641 8741 8739 8574 8390 8224 8080 7949 7824 7718 7617 7517 7581 7553 7511 7484 7462 7441 7670 7446 7458 7481 7512 7554 7609 7667 7741 7793 7824 7946 8081 8201 8329 8509 8671 8697 8596 8529 8267 7961 7663 7366 7129 6913 6715 6537 6373 6223 6084 5960 5847 5750 5722 5645 5573 5517 5469 5425 5384 5358 5336 5318 5301 
5470 5308 5318 5337 5356 5390 5422 5469 5521 5583 5647 5727 5807 5906 6010 6129 6232 6372 6535 6716 6912 7132 7379 7637 7938 8266 8635 8818 8933 8762 8549 8379 8217 8079 7949 7829 7716 7613 7584 7607 7557 7515 7478 7457 7437 7670 7434 7459 7481 7512 7553 7606 7668 7737 7716 7831 7948 8078 8214 8373 8513 8704 8870 8792 8643 8291 7938 7642 7383 7136 6915 6715 6534 6371 6221 6088 5962 5852 5807 5726 5647 5583 5520 5469 5422 5389 5356 5336 5319 5308 
4923 5317 5319 5333 5358 5387 5426 5468 5520 5578 5646 5718 5809 5901 6010 6101 6222 6373 6535 6714 6916 7134 7369 7640 7933 8266 8639 9006 8922 8724 8550 8376 8223 8074 7944 7826 7716 7625 7667 7604 7553 7511 7478 7455 7448 7257 7451 7459 7482 7513 7554 7606 7666 7628 7716 7824 7948 8077 8220 8377 8551 8719 8901 9011 8649 8267 7936 7637 7364 7131 6913 6714 6536 6371 6221 6084 5962 5901 5809 5719 5646 5578 5520 5468 5426 5388 5358 5334 5319 5317 
5470 5305 5318 5334 5362 5386 5423 5469 5519 5578 5647 5721 5808 5905 5980 6084 6223 6370 6537 6716 6913 7131 7377 7636 7940 8292 8649 8983 8919 8704 8521 8375 8225 8078 7947 7825 7718 7740 7668 7607 7555 7516 7483 7460 7452 7316 7449 7456 7479 7514 7554 7605 7585 7616 7720 7826 7945 8076 8223 8377 8551 8758 8964 8986 8635 8268 7937 7642 7382 7136 6914 6716 6535 6372 6224 6086 6011 5905 5808 5722 5647 5578 5519 5469 5423 5386 5362 5335 5318 5305 
5470 5303 5317 5337 5357 5391 5423 5469 5521 5583 5647 5727 5809 5869 5963 6087 6222 6371 6535 6714 6914 7136 7373 7652 7957 8268 8618 8793 8875 8704 8507 8331 8195 8078 7947 7830 7791 7738 7667 7606 7553 7512 7481 7460 7434 7670 7437 7456 7478 7515 7557 7580 7517 7610 7714 7830 7947 8077 8217 8385 8573 8744 8929 8834 8642 8266 7935 7638 7367 7132 6914 6715 6537 6372 6222 6126 6009 5902 5809 5726 5647 5583 5520 5469 5423 5391 5357 5336 5318 5303 
5470 5315 5322 5336 5359 5383 5426 5469 5517 5574 5644 5720 5772 5845 5960 6084 6223 6373 6536 6715 6915 7130 7401 7653 7941 8256 8529 8595 8691 8695 8509 8330 8168 8033 7943 7853 7822 7741 7667 7608 7554 7512 7481 7457 7446 7670 7441 7463 7484 7511 7553 7422 7517 7617 7718 7823 7948 8080 8252 8396 8550 8738 8749 8642 8549 8275 7940 7643 7380 7132 6914 6714 6535 6369 6253 6124 6008 5901 5806 5720 5645 5573 5518 5469 5426 5383 5359 5336 5321 5315 
4923 5313 5317 5333 5355 5391 5424 5469 5521 5583 5649 5684 5742 5852 5960 6086 6222 6370 6536 6717 6934 7160 7374 7643 7931 8246 8334 8396 8495 8619 8507 8328 8161 8009 7873 7888 7823 7739 7666 7603 7557 7515 7481 7453 7453 6903 7452 7454 7484 7515 7378 7422 7517 7615 7716 7830 7964 8100 8217 8377 8548 8687 8551 8441 8368 8267 7940 7637 7368 7133 6915 6717 6537 6395 6256 6129 6010 5907 5807 5722 5648 5584 5521 5469 5424 5391 5355 5333 5317 5313 
5470 5300 5320 5336 5357 5385 5425 5468 5520 5577 5605 5648 5744 5844 5961 6087 6221 6372 6542 6744 6918 7129 7372 7636 7928 8112 8141 8198 8290 8413 8486 8331 8167 8016 7942 7826 7749 7730 7666 7606 7554 7511 7479 7464 7438 7670 7444 7459 7477 7387 7324 7423 7515 7611 7723 7851 7954 8084 8227 8379 8552 8481 8347 8243 8177 8132 7949 7644 7373 7131 6913 6720 6553 6402 6256 6126 6009 5900 5812 5724 5646 5577 5520 5468 5425 5385 5357 5335 5320 5300 
5470 5310 5317 5335 5359 5392 5424 5469 5518 5532 5555 5646 5739 5852 5961 6084 6223 6398 6555 6717 6916 7137 7373 7638 7893 7919 7946 8001 8083 8210 8365 8327 8163 8046 7946 7828 7718 7623 7614 7608 7555 7513 7481 7455 7440 7670 7434 7456 7444 7214 7322 7422 7519 7643 7736 7828 7948 8070 8217 8376 8447 8279 8140 8046 7979 7945 7908 7640 7370 7126 6911 6729 6559 6400 6257 6127 6009 5908 5805 5724 5646 5577 5518 5469 5423 5392 5359 5336 5317 5310 
4923 5319 5323 5333 5359 5385 5426 5469 5467 5476 5557 5643 5741 5842 5959 6105 6246 6372 6537 6717 6914 7128 7373 7624 7739 7729 7753 7802 7884 7993 8147 8279 8172 8078 7946 7825 7715 7610 7518 7475 7531 7511 7484 7459 7450 6903 7453 7464 7088 7216 7324 7445 7542 7611 7713 7825 7945 8081 8218 8371 8230 8062 7938 7848 7788 7752 7755 7646 7374 7122 6913 6724 6559 6401 6256 6126 6008 5900 5807 5720 5647 5583 5520 5469 5427 5385 5359 5333 5323 5319 
5470 5302 5315 5337 5357 5388 5423 5407 5397 5467 5557 5645 5742 5854 5987 6092 6224 6372 6534 6715 6912 7137 7366 7574 7537 7538 7557 7606 7685 7793 7932 8111 8201 8076 7947 7831 7717 7615 7517 7421 7331 7383 7477 7456 7447 7670 7449 7010 7065 7228 7351 7423 7518 7614 7720 7831 7945 8078 8222 8210 8013 7862 7740 7650 7590 7562 7551 7574 7371 7133 6912 6716 6538 6394 6258 6126 6009 5901 5808 5723 5646 5573 5522 5469 5423 5387 5357 5337 5315 5302 
5470 5304 5320 5336 5357 5388 5351 5319 5393 5479 5553 5652 5769 5862 5959 6085 6219 6370 6537 6715 6916 7126 7359 7382 7361 7346 7360 7406 7473 7571 7711 7925 8130 8079 7948 7824 7718 7616 7518 7422 7324 7213 7142 7334 7435 7670 6984 6828 7085 7222 7326 7422 7517 7616 7716 7824 7950 8076 8189 7982 7793 7639 7530 7452 7398 7371 7376 7395 7371 7128 6915 6714 6537 6372 6233 6127 6008 5905 5809 5725 5645 5584 5517 5469 5425 5389 5357 5336 5319 5304 
4923 5318 5319 5332 5358 5289 5241 5318 5393 5470 5584 5665 5743 5846 5960 6087 6226 6375 6536 6714 6913 7124 7254 7201 7160 7156 7171 7209 7276 7379 7518 7708 7923 8026 7946 7829 7715 7612 7517 7423 7324 7213 7069 6810 6652 5857 6130 6823 7068 7212 7323 7425 7517 7612 7715 7828 7947 8080 7983 7755 7580 7448 7333 7254 7204 7181 7174 7199 7254 7136 6914 6715 6536 6372 6225 6087 5992 5902 5811 5719 5648 5576 5520 5468 5425 5384 5359 5332 5320 5318 
5470 5308 5318 5337 5230 5161 5238 5320 5421 5497 5556 5644 5738 5849 5962 6084 6219 6369 6535 6715 6909 7104 7068 7007 6982 6966 6976 7012 7075 7155 7318 7480 7683 7928 7931 7827 7718 7617 7516 7421 7326 7215 7068 6824 6139 6171 6712 6820 7069 7214 7328 7419 7516 7615 7719 7829 7946 7996 7736 7529 7360 7218 7130 7057 7009 6988 6991 7016 7063 7112 6913 6713 6535 6368 6220 6085 5962 5862 5795 5722 5647 5578 5521 5469 5421 5392 5358 5337 5318 5308 
5470 5301 5318 5137 5057 5157 5267 5343 5393 5476 5554 5649 5742 5846 5961 6086 6225 6371 6535 6715 6902 6963 6880 6826 6783 6773 6782 6813 6869 6995 7103 7253 7444 7683 7868 7823 7716 7613 7515 7423 7324 7231 7085 6824 7065 7770 7536 7433 7214 7215 7321 7425 7515 7614 7714 7823 7946 7748 7502 7301 7143 7030 6927 6859 6818 6791 6789 6821 6880 6954 6915 6716 6535 6372 6226 6087 5960 5848 5741 5683 5642 5582 5519 5469 5427 5384 5360 5336 5318 5301 
5470 5314 4979 4929 5083 5184 5241 5319 5396 5466 5558 5642 5744 5849 5959 6085 6219 6372 6537 6706 6861 6769 6691 6632 6601 6583 6588 6616 6686 6763 6885 7027 7208 7428 7707 7771 7716 7612 7521 7448 7350 7224 7067 7080 7538 7770 7537 7555 7577 7517 7403 7422 7518 7612 7719 7829 7786 7495 7262 7074 6926 6798 6721 6661 6611 6597 6608 6641 6686 6764 6856 6716 6537 6371 6217 6083 5960 5847 5745 5643 5561 5529 5519 5469 5423 5392 5357 5333 5317 5314 
4923 4539 4699 4934 5058 5154 5240 5318 5393 5480 5556 5645 5741 5846 5962 6086 6225 6371 6534 6708 6684 6584 6504 6448 6407 6392 6399 6429 6494 6582 6667 6799 6966 7177 7438 7710 7723 7642 7538 7421 7323 7213 7122 7557 7548 6993 7548 7558 7581 7610 7650 7626 7576 7618 7717 7801 7512 7242 7023 6850 6708 6615 6521 6448 6416 6402 6413 6444 6504 6575 6670 6715 6535 6370 6226 6088 5962 5848 5740 5643 5557 5479 5407 5414 5424 5385 5357 5333 5323 5315 
3015 3997 4685 4924 5057 5162 5239 5319 5393 5469 5554 5648 5741 5843 5961 6086 6218 6371 6525 6615 6491 6392 6312 6256 6221 6200 6205 6242 6286 6340 6451 6574 6728 6938 7190 7497 7619 7612 7518 7424 7323 7211 7559 7552 7541 7770 7542 7550 7579 7608 7653 7706 7767 7784 7779 7567 7243 6990 6785 6620 6493 6375 6296 6242 6219 6215 6229 6265 6307 6387 6480 6597 6537 6374 6218 6084 5959 5844 5742 5650 5553 5468 5397 5319 5267 5307 5353 5340 5318 5301 
5570 5033 4692 4943 5085 5174 5250 5315 5395 5474 5557 5643 5743 5849 5961 6085 6226 6369 6514 6422 6301 6204 6128 6071 6031 6009 6020 6044 6085 6174 6255 6371 6511 6680 6895 7176 7527 7542 7518 7421 7326 7524 7577 7559 7533 7770 7533 7560 7579 7610 7653 7705 7768 7839 7838 7426 7053 6753 6542 6393 6275 6174 6084 6044 6020 6020 6036 6067 6128 6195 6289 6405 6506 6375 6225 6086 5961 5848 5743 5644 5558 5473 5392 5319 5240 5155 5094 5153 5278 5308 
5013 5407 5279 4940 5060 5164 5258 5343 5419 5502 5576 5655 5744 5845 5963 6086 6219 6360 6366 6224 6109 6015 5939 5886 5851 5850 5854 5872 5908 5937 6019 6118 6251 6414 6623 6887 7210 7491 7508 7421 7500 7612 7578 7553 7547 6993 7547 7553 7575 7611 7656 7706 7768 7842 7526 7172 6882 6640 6418 6212 6029 5919 5882 5847 5829 5830 5849 5890 5933 6010 6097 6208 6343 6364 6220 6086 5965 5847 5739 5644 5557 5477 5394 5319 5243 5156 5060 4916 4706 4545 
5570 5405 5416 5379 5098 5157 5238 5319 5393 5466 5558 5661 5764 5875 5984 6111 6241 6340 6193 6056 5945 5848 5777 5716 5673 5643 5636 5649 5680 5749 5800 5893 6014 6165 6353 6591 6897 7274 7371 7505 7652 7612 7576 7557 7547 7770 7547 7558 7578 7613 7653 7703 7767 7628 7209 6872 6611 6403 6226 6053 5934 5842 5726 5663 5637 5639 5659 5691 5752 5814 5906 6013 6146 6291 6225 6085 5958 5847 5744 5646 5553 5467 5395 5319 5238 5158 5080 5043 5078 5177 
5570 5403 5416 5432 5438 5227 5243 5317 5396 5478 5560 5648 5742 5843 5960 6081 6207 6126 5971 5837 5725 5639 5559 5510 5469 5450 5438 5451 5474 5497 5579 5666 5770 5910 6085 6301 6573 6930 7354 7604 7653 7610 7582 7552 7533 7770 7533 7551 7581 7609 7651 7706 7727 7279 6887 6587 6343 6132 5935 5825 5734 5645 5619 5583 5547 5523 5515 5534 5566 5636 5715 5819 5947 6100 6193 6087 5961 5844 5741 5646 5560 5488 5424 5384 5380 5391 5420 5435 5413 5401 
5013 5409 5418 5431 5457 5489 5352 5319 5392 5470 5555 5643 5740 5844 5962 6076 6104 5926 5771 5643 5537 5443 5375 5316 5282 5256 5248 5253 5276 5335 5366 5436 5536 5656 5812 6005 6250 6575 7222 7523 7632 7609 7579 7557 7542 6993 7540 7558 7580 7609 7655 7706 7388 6922 6566 6288 6039 5830 5702 5593 5517 5484 5422 5395 5387 5395 5421 5448 5497 5543 5621 5710 5824 5964 6137 6143 6036 5930 5842 5767 5706 5654 5611 5568 5524 5491 5455 5431 5413 5408 
5570 5409 5413 5437 5457 5482 5522 5465 5398 5472 5555 5645 5743 5851 5952 6052 5884 5716 5575 5448 5345 5262 5179 5137 5088 5065 5057 5056 5072 5077 5146 5211 5293 5405 5539 5716 5938 6406 6838 7355 7426 7609 7575 7555 7548 7770 7549 7554 7574 7612 7650 7538 6988 6565 6249 5944 5720 5576 5456 5370 5301 5224 5216 5199 5197 5205 5226 5273 5316 5394 5472 5572 5694 5833 5998 6171 6120 6011 5914 5827 5748 5679 5621 5567 5522 5481 5458 5434 5418 5412 
5570 5400 5417 5432 5457 5492 5524 5567 5574 5499 5557 5647 5743 5843 5948 5874 5688 5516 5376 5258 5155 5056 5001 4938 4904 4876 4862 4857 4868 4915 4929 4985 5062 5150 5271 5420 5755 6090 6435 6898 7404 7431 7577 7553 7538 7770 7539 7554 7579 7614 7636 7083 6585 6202 5835 5613 5454 5322 5225 5143 5082 5067 5013 4999 5002 5015 5044 5077 5137 5192 5283 5381 5497 5634 5804 5986 6077 6014 5913 5829 5752 5684 5620 5568 5524 5491 5456 5432 5419 5400 
5570 5410 5418 5427 5455 5481 5523 5567 5621 5667 5622 5643 5740 5840 5868 5656 5464 5317 5179 5065 4952 4877 4803 4760 4711 4683 4667 4660 4663 4658 4714 4755 4814 4897 4998 5235 5504 5727 6028 6438 7004 7312 7501 7557 7534 7770 7533 7556 7582 7613 7232 6620 6124 5730 5505 5321 5179 5071 4979 4913 4865 4804 4810 4803 4808 4820 4848 4895 4940 5017 5087 5188 5298 5433 5577 5766 5979 5988 5915 5825 5749 5677 5621 5568 5523 5483 5457 5431 5413 5403 
5013 5409 5415 5435 5456 5488 5525 5568 5622 5683 5748 5760 5745 5816 5642 5436 5272 5109 4980 4858 4760 4678 4624 4558 4525 4494 4473 4461 4464 4496 4493 4532 4578 4643 4807 5029 5180 5377 5629 5972 6457 7142 7162 7555 7548 6993 7549 7555 7576 7440 6677 6037 5629 5378 5179 5029 4910 4814 4747 4691 4648 4646 4609 4603 4613 4634 4665 4698 4758 4814 4900 4994 5101 5227 5387 5550 5753 5936 5909 5826 5748 5684 5621 5567 5524 5488 5455 5434 5415 5415 
5570 5402 5414 5437 5456 5486 5521 5568 5618 5678 5749 5828 5886 5702 5416 5223 5041 4907 4770 4657 4570 4498 4426 4384 4334 4300 4276 4264 4257 4239 4279 4303 4339 4450 4640 4737 4859 5022 5229 5511 5901 6487 7146 7040 7545 7770 7545 7558 7561 6682 5914 5509 5229 5021 4859 4737 4639 4563 4503 4461 4430 4387 4402 4407 4418 4439 4470 4519 4566 4638 4708 4797 4902 5024 5155 5334 5524 5755 5850 5830 5751 5680 5619 5569 5523 5484 5455 5434 5420 5403 
5570 5405 5416 5429 5457 5486 5525 5568 5622 5683 5752 5813 5827 5567 5302 5027 4858 4695 4561 4462 4376 4300 4248 4181 4145 4114 4082 4065 4054 4077 4060 4074 4150 4310 4369 4444 4544 4663 4829 5048 5358 5809 6559 6906 6960 7770 7533 7444 6667 5809 5357 5048 4829 4664 4545 4444 4370 4310 4264 4231 4214 4225 4199 4207 4221 4251 4285 4321 4383 4436 4515 4603 4706 4827 4973 5114 5299 5510 5763 5774 5750 5680 5622 5567 5523 5485 5457 5429 5415 5401 
5013 5408 5419 5432 5454 5487 5523 5567 5621 5681 5737 5805 5578 5331 5120 4935 4690 4491 4366 4268 4189 4119 4050 4007 3956 3916 3891 3868 3854 3823 3842 3892 4027 4057 4095 4150 4217 4314 4429 4587 4799 5126 5650 6608 6199 5490 6726 6612 5651 5126 4800 4587 4429 4315 4215 4150 4095 4056 4029 4010 3996 3971 3999 4011 4031 4057 4092 4142 4191 4259 4328 4409 4506 4617 4733 4900 5072 5275 5511 5733 5715 5683 5620 5568 5524 5489 5454 5433 5413 5412 
5570 5407 5413 5433 5455 5482 5522 5567 5618 5674 5742 5603 5323 5094 4893 4701 4557 4407 4249 4099 3996 3922 3870 3804 3767 3730 3694 3672 3651 3653 3669 3779 3787 3805 3826 3859 3903 3954 4028 4123 4255 4440 4738 5443 7025 6848 6152 5318 4738 4441 4255 4123 4028 3953 3905 3859 3825 3804 3785 3781 3779 3804 3796 3813 3835 3868 3905 3944 4005 4058 4133 4214 4309 4416 4558 4679 4843 5035 5258 5525 5660 5668 5619 5567 5522 5482 5457 5436 5415 5407 
5570 5401 5417 5434 5455 5492 5525 5568 5621 5674 5636 5328 5072 4851 4640 4465 4311 4213 4111 4015 3905 3787 3687 3630 3579 3539 3503 3473 3443 3452 3561 3551 3551 3547 3558 3565 3581 3599 3630 3659 3730 3902 4222 4706 5730 7870 5423 3969 3841 3758 3703 3660 3629 3600 3580 3565 3559 3549 3554 3551 3562 3555 3589 3616 3643 3677 3715 3765 3813 3879 3943 4019 4110 4216 4311 4464 4618 4795 5005 5252 5549 5581 5621 5568 5525 5492 5454 5430 5422 5401 
5013 5411 5416 5431 5457 5481 5523 5568 5611 5640 5346 5058 4816 4584 4393 4245 4141 4013 3914 3829 3752 3682 3614 3522 3445 3372 3322 3277 3304 3384 3344 3328 3312 3300 3284 3275 3273 3293 3332 3397 3458 3475 3446 3361 3035 1574 3035 3004 2933 3079 3152 3198 3224 3247 3258 3272 3284 3299 3309 3328 3344 3383 3393 3416 3451 3484 3525 3567 3625 3681 3752 3830 3915 4009 4140 4246 4391 4560 4751 4982 5255 5539 5519 5568 5523 5481 5456 5431 5412 5404 
5570 5408 5419 5433 5456 5490 5524 5560 5609 5379 5056 4789 4526 4316 4165 4029 3891 3805 3716 3635 3560 3498 3435 3390 3339 3291 3243 3260 3285 3225 3208 3181 3158 3144 3136 3135 3131 3112 3079 3018 2935 2791 2542 2011 528 0 528 2011 2176 2392 2607 2736 2829 2888 2944 2980 3011 3043 3072 3100 3127 3139 3187 3221 3257 3295 3338 3390 3438 3500 3561 3635 3715 3805 3891 4029 4162 4316 4502 4710 4966 5272 5493 5479 5524 5490 5457 5435 5414 5414 
5570 5401 5411 5432 5458 5484 5518 5557 5421 5057 4758 4461 4246 4081 3935 3813 3721 3604 3517 3441 3372 3306 3251 3190 3146 3107 3149 3163 3127 3112 3063 3030 2998 2962 2926 2881 2825 2763 2679 2555 2376 2110 1635 656 0 0 0 656 1635 1761 2048 2272 2429 2538 2614 2688 2744 2790 2834 2869 2910 2962 2981 3020 3061 3102 3146 3190 3248 3304 3371 3442 3518 3605 3722 3812 3939 4081 4245 4441 4669 4952 5295 5413 5448 5484 5456 5434 5419 5402 
5570 5408 5418 5434 5456 5485 5514 5466 5069 4720 4389 4167 3991 3843 3711 3593 3473 3403 3321 3249 3177 3117 3058 3014 2977 3022 3008 2966 2928 2870 2845 2805 2760 2711 2653 2587 2510 2407 2272 2092 1835 1426 731 0 0 0 0 0 731 1413 1520 1808 2022 2178 2305 2393 2472 2538 2592 2648 2692 2722 2784 2824 2867 2912 2961 3014 3062 3120 3178 3247 3320 3402 3473 3594 3710 3843 3990 4169 4381 4628 4945 5319 5340 5425 5458 5429 5417 5401 
5013 5408 5417 5432 5454 5477 5482 5088 4662 4313 4081 3898 3742 3601 3483 3378 3301 3197 3121 3052 2989 2929 2873 2858 2894 2860 2814 2768 2722 2691 2628 2576 2521 2456 2382 2296 2187 2049 1870 1631 1277 744 0 0 0 0 0 0 0 744 1240 1352 1620 1824 1978 2103 2200 2283 2358 2419 2475 2542 2578 2625 2674 2721 2767 2814 2869 2926 2989 3052 3122 3198 3300 3377 3481 3601 3743 3898 4082 4314 4583 4938 5303 5256 5404 5433 5413 5415 
5570 5404 5416 5433 5447 5472 5100 4582 4234 3990 3799 3629 3483 3366 3255 3159 3056 2996 2925 2857 2796 2748 2767 2772 2721 2668 2618 2570 2518 2453 2412 2349 2279 2203 2113 2002 1867 1698 1470 1167 733 117 0 0 0 0 0 0 0 117 733 1111 1220 1473 1657 1808 1931 2032 2114 2189 2258 2305 2371 2429 2477 2529 2583 2636 2687 2740 2796 2859 2924 2995 3057 3160 3257 3364 3484 3630 3798 3988 4234 4531 4925 5250 5158 5386 5415 5404 
5570 5404 5414 5421 5446 5063 4475 4129 3875 3669 3496 3356 3236 3121 3030 2942 2880 2795 2725 2666 2655 2674 2632 2578 2525 2478 2423 2372 2317 2271 2192 2124 2042 1950 1841 1710 1549 1342 1070 705 188 0 0 0 0 0 0 0 0 0 188 705 1004 1114 1344 1517 1659 1778 1877 1967 2040 2121 2172 2228 2284 2339 2388 2440 2492 2549 2607 2663 2727 2796 2879 2942 3029 3120 3235 3356 3496 3670 3877 4129 4464 4916 5157 5024 5354 5402 
5013 5408 5409 5336 4953 4361 4000 3728 3518 3351 3210 3085 2978 2888 2801 2727 2640 2592 2567 2576 2554 2497 2446 2395 2344 2287 2232 2175 2114 2037 1978 1895 1804 1696 1570 1415 1224 985 670 242 0 0 0 0 0 0 0 0 0 0 0 242 670 919 1014 1223 1388 1523 1641 1737 1825 1889 1969 2034 2091 2149 2206 2258 2311 2361 2415 2468 2528 2590 2640 2726 2800 2889 2978 3084 3210 3352 3515 3729 4000 4360 4882 5018 4785 5247 
5371 5050 4944 4788 4206 3815 3539 3329 3170 3028 2914 2817 2726 2647 2572 2517 2511 2496 2471 2417 2362 2311 2255 2201 2147 2095 2039 1977 1910 1849 1758 1669 1563 1444 1298 1126 909 632 270 0 0 0 0 0 0 0 0 0 0 0 0 0 270 632 851 933 1118 1271 1398 1509 1605 1700 1764 1834 1898 1956 2010 2064 2115 2171 2223 2276 2330 2383 2459 2507 2574 2649 2726 2817 2915 3026 3170 3328 3539 3815 4205 4791 4768 4098 
4828 4814 4730 3959 3524 3262 3073 2929 2806 2711 2623 2549 2497 2463 2448 2429 2372 2331 2276 2223 2172 2119 2069 2018 1965 1905 1845 1779 1708 1621 1542 1442 1329 1192 1030 829 587 275 0 0 0 0 0 0 0 0 0 0 0 0 0 0 0 275 587 784 854 1020 1167 1285 1389 1473 1562 1637 1706 1766 1827 1880 1934 1983 2034 2083 2133 2188 2224 2292 2349 2407 2475 2544 2621 2713 2808 2929 3073 3263 3521 3919 4550 4420 
5094 5191 4069 3501 3166 2941 2785 2670 2587 2521 2471 2428 2383 2334 2279 2225 2187 2126 2078 2031 1980 1933 1878 1826 1769 1712 1650 1581 1506 1428 1325 1214 1085 935 757 540 266 0 0 0 0 0 0 0 0 0 0 0 0 0 0 0 0 0 266 540 728 780 919 1056 1172 1279 1363 1438 1509 1574 1632 1690 1738 1793 1840 1890 1936 1980 2037 2072 2120 2171 2218 2272 2330 2389 2455 2529 2613 2712 2839 3019 3607 5196 
3396 2871 2714 2628 2554 2491 2433 2379 2330 2277 2228 2184 2142 2093 2051 2010 1956 1921 1879 1835 1789 1740 1694 1641 1587 1523 1456 1384 1303 1205 1106 987 852 686 487 246 0 0 0 0 0 0 0 0 0 0 0 0 0 0 0 0 0 0 0 246 487 674 726 828 953 1057 1157 1242 1316 1383 1449 1502 1559 1604 1651 1696 1736 1774 1808 1857 1894 1928 1970 2002 2036 2068 2106 2129 2150 2162 2158 2402 2714 2871 
0 425 1363 1717 1871 1939 1970 1978 1968 1957 1940 1914 1884 1859 1826 1792 1766 1721 1682 1641 1599 1554 1501 1450 1390 1330 1262 1184 1098 1007 891 762 608 428 216 0 0 0 0 0 0 0 0 0 0 0 0 0 0 0 0 0 0 0 0 0 216 428 606 680 740 857 952 1041 1121 1192 1253 1314 1361 1414 1460 1500 1540 1577 1617 1639 1667 1697 1712 1732 1745 1753 1739 1724 1686 1646 1786 1717 1363 425 
0 0 174 817 1188 1391 1507 1579 1618 1638 1641 1642 1633 1616 1598 1574 1539 1518 1484 1448 1406 1362 1318 1263 1208 1140 1069 988 899 789 672 533 371 179 0 0 0 0 0 0 0 0 0 0 0 0 0 0 0 0 0 0 0 0 0 0 0 179 371 533 636 665 756 846 929 1001 1069 1124 1183 1226 1267 1307 1341 1373 1391 1421 1439 1449 1461 1460 1448 1425 1392 1330 1337 1377 1187 817 174 0 
0 0 0 0 507 840 1045 1179 1263 1317 1357 1371 1380 1381 1370 1358 1346 1313 1286 1254 1216 1175 1124 1074 1012 950 872 789 692 586 455 307 132 0 0 0 0 0 0 0 0 0 0 0 0 0 0 0 0 0 0 0 0 0 0 0 0 0 132 307 455 581 623 658 732 811 875 939 984 1035 1078 1114 1144 1166 1197 1205 1213 1213 1207 1191 1163 1112 1087 1124 1045 840 507 0 0 0 
0 0 0 0 0 290 583 777 903 997 1055 1100 1126 1140 1145 1139 1122 1112 1087 1056 1026 984 942 887 829 757 680 592 489 373 239 0 0 0 0 0 0 0 0 0 0 0 0 0 0 0 0 0 0 0 0 0 0 0 0 0 0 0 0 0 239 373 489 579 610 636 690 747 807 849 887 917 944 969 974 986 986 977 953 922 910 934 901 777 583 290 0 0 0 0 
0 0 0 0 0 0 132 370 555 677 769 830 873 902 917 923 925 910 890 866 832 796 747 697 634 567 487 393 288 165 0 0 0 0 0 0 0 0 0 0 0 0 0 0 0 0 0 0 0 0 0 0 0 0 0 0 0 0 0 0 0 165 288 393 487 559 591 612 628 662 694 725 748 765 775 772 769 773 786 796 768 677 555 370 132 0 0 0 0 0 
0 0 0 0 0 0 0 0 195 356 472 560 621 662 689 706 706 705 693 672 644 606 566 510 450 376 293 197 0 0 0 0 0 0 0 0 0 0 0 0 0 0 0 0 0 0 0 0 0 0 0 0 0 0 0 0 0 0 0 0 0 0 0 197 293 376 450 510 560 585 604 618 632 644 655 670 673 660 621 560 472 356 195 0 0 0 0 0 0 0 
0 0 0 0 0 0 0 0 0 0 181 288 366 421 465 487 504 501 495 478 451 418 371 321 256 185 0 0 0 0 0 0 0 0 0 0 0 0 0 0 0 0 0 0 0 0 0 0 0 0 0 0 0 0 0 0 0 0 0 0 0 0 0 0 0 185 256 321 371 418 451 478 495 501 504 487 465 421 366 288 181 0 0 0 0 0 0 0 0 0 
0 0 0 0 0 0 0 0 0 0 0 0 114 187 236 272 290 301 297 283 261 227 189 133 0 0 0 0 0 0 0 0 0 0 0 0 0 0 0 0 0 0 0 0 0 0 0 0 0 0 0 0 0 0 0 0 0 0 0 0 0 0 0 0 0 0 0 133 189 227 261 283 297 301 290 272 236 187 114 0 0 0 0 0 0 0 0 0 0 0 
0 0 0 0 0 0 0 0 0 0 0 0 0 0 0 0 0 0 0 0 0 0 0 0 0 0 0 0 0 0 0 0 0 0 0 0 0 0 0 0 0 0 0 0 0 0 0 0 0 0 0 0 0 0 0 0 0 0 0 0 0 0 0 0 0 0 0 0 0 0 0 0 0 0 0 0 0 0 0 0 0 0 0 0 0 0 0 0 0 0 
